<svg width="546" height="315" viewBox="0 0 546 315" fill="none" xmlns="http://www.w3.org/2000/svg">
<path opacity="0.2" d="M244.46 306.913L242.63 285.993L255.869 284.835L256.23 288.959L247.115 289.756L247.423 293.283L254.536 292.661L254.897 296.785L247.784 297.407L248.223 302.428L257.338 301.63L257.699 305.755L244.46 306.913ZM261.008 305.465L259.178 284.545L267.486 283.818C268.622 283.719 269.673 283.918 270.64 284.416C271.616 284.902 272.415 285.605 273.038 286.525C273.669 287.433 274.036 288.47 274.138 289.636C274.218 290.552 274.134 291.418 273.884 292.233C273.633 293.038 273.244 293.759 272.718 294.397C272.191 295.036 271.559 295.553 270.821 295.949L276.549 304.106L271.797 304.521L266.311 296.72L264.413 296.886L265.132 305.104L261.008 305.465ZM264.052 292.762L267.743 292.439C268.191 292.399 268.59 292.254 268.94 292.003C269.298 291.74 269.571 291.41 269.757 291.013C269.952 290.604 270.029 290.166 269.988 289.698C269.948 289.239 269.797 288.831 269.534 288.472C269.281 288.103 268.955 287.82 268.557 287.624C268.168 287.428 267.75 287.349 267.301 287.388L263.61 287.711L264.052 292.762ZM279.132 303.88L277.302 282.959L285.61 282.233C286.746 282.133 287.797 282.332 288.764 282.83C289.74 283.317 290.54 284.02 291.162 284.939C291.794 285.847 292.16 286.884 292.262 288.05C292.343 288.966 292.258 289.832 292.008 290.647C291.757 291.452 291.368 292.174 290.842 292.812C290.316 293.45 289.683 293.967 288.945 294.363L294.673 302.52L289.921 302.936L284.435 295.134L282.537 295.3L283.256 303.519L279.132 303.88ZM282.176 291.176L285.867 290.853C286.316 290.814 286.714 290.668 287.064 290.417C287.422 290.155 287.695 289.825 287.881 289.427C288.076 289.018 288.153 288.58 288.112 288.112C288.072 287.654 287.921 287.245 287.658 286.887C287.405 286.517 287.079 286.235 286.681 286.039C286.292 285.842 285.874 285.763 285.425 285.802L281.735 286.125L282.176 291.176ZM306.361 301.889C304.946 302.013 303.592 301.85 302.298 301.401C301.003 300.942 299.839 300.256 298.805 299.343C297.772 298.429 296.929 297.344 296.277 296.086C295.624 294.818 295.232 293.437 295.101 291.942C294.97 290.448 295.117 289.025 295.541 287.673C295.964 286.311 296.605 285.09 297.464 284.011C298.323 282.932 299.351 282.059 300.547 281.392C301.743 280.716 303.048 280.315 304.463 280.192C305.887 280.067 307.247 280.234 308.542 280.693C309.836 281.142 311 281.823 312.033 282.737C313.067 283.65 313.905 284.741 314.548 286.01C315.2 287.268 315.592 288.644 315.722 290.138C315.853 291.632 315.707 293.061 315.284 294.423C314.87 295.774 314.234 296.989 313.375 298.068C312.515 299.147 311.488 300.025 310.292 300.702C309.096 301.368 307.786 301.764 306.361 301.889ZM306 297.765C306.847 297.69 307.629 297.446 308.345 297.032C309.061 296.608 309.676 296.063 310.19 295.395C310.703 294.728 311.084 293.977 311.333 293.142C311.591 292.307 311.679 291.425 311.598 290.499C311.517 289.573 311.277 288.72 310.878 287.942C310.487 287.153 309.982 286.48 309.361 285.922C308.739 285.354 308.039 284.928 307.261 284.645C306.483 284.351 305.67 284.242 304.824 284.316C303.977 284.39 303.196 284.639 302.48 285.063C301.763 285.477 301.148 286.018 300.634 286.685C300.12 287.352 299.734 288.104 299.476 288.94C299.228 289.774 299.144 290.655 299.225 291.581C299.307 292.508 299.542 293.366 299.932 294.155C300.332 294.933 300.842 295.606 301.464 296.174C302.085 296.732 302.785 297.157 303.564 297.451C304.341 297.734 305.153 297.839 306 297.765ZM319.262 300.369L317.432 279.449L325.74 278.722C326.876 278.622 327.927 278.821 328.894 279.319C329.87 279.806 330.669 280.509 331.292 281.428C331.924 282.336 332.29 283.373 332.392 284.539C332.472 285.456 332.388 286.321 332.138 287.136C331.887 287.941 331.498 288.663 330.972 289.301C330.446 289.939 329.813 290.456 329.075 290.852L334.803 299.009L330.051 299.425L324.565 291.623L322.667 291.789L323.386 300.008L319.262 300.369ZM322.306 287.665L325.997 287.342C326.446 287.303 326.844 287.158 327.194 286.906C327.552 286.644 327.825 286.314 328.011 285.916C328.206 285.508 328.283 285.069 328.242 284.601C328.202 284.143 328.051 283.734 327.788 283.376C327.535 283.007 327.209 282.724 326.811 282.528C326.422 282.331 326.004 282.252 325.555 282.291L321.864 282.614L322.306 287.665Z" fill="white"/>
<path d="M247.46 306.913L245.63 285.993L258.869 284.835L259.23 288.959L250.115 289.756L250.423 293.283L257.536 292.661L257.897 296.785L250.784 297.407L251.223 302.428L260.338 301.63L260.699 305.755L247.46 306.913ZM264.008 305.465L262.178 284.545L270.486 283.818C271.622 283.719 272.673 283.918 273.64 284.416C274.616 284.902 275.415 285.605 276.038 286.525C276.669 287.433 277.036 288.47 277.138 289.636C277.218 290.552 277.134 291.418 276.884 292.233C276.633 293.038 276.244 293.759 275.718 294.397C275.191 295.036 274.559 295.553 273.821 295.949L279.549 304.106L274.797 304.521L269.311 296.72L267.413 296.886L268.132 305.104L264.008 305.465ZM267.052 292.762L270.743 292.439C271.191 292.399 271.59 292.254 271.94 292.003C272.298 291.74 272.571 291.41 272.757 291.013C272.952 290.604 273.029 290.166 272.988 289.698C272.948 289.239 272.797 288.831 272.534 288.472C272.281 288.103 271.955 287.82 271.557 287.624C271.168 287.428 270.75 287.349 270.301 287.388L266.61 287.711L267.052 292.762ZM282.132 303.88L280.302 282.959L288.61 282.233C289.746 282.133 290.797 282.332 291.764 282.83C292.74 283.317 293.54 284.02 294.162 284.939C294.794 285.847 295.16 286.884 295.262 288.05C295.343 288.966 295.258 289.832 295.008 290.647C294.757 291.452 294.368 292.174 293.842 292.812C293.316 293.45 292.683 293.967 291.945 294.363L297.673 302.52L292.921 302.936L287.435 295.134L285.537 295.3L286.256 303.519L282.132 303.88ZM285.176 291.176L288.867 290.853C289.316 290.814 289.714 290.668 290.064 290.417C290.422 290.155 290.695 289.825 290.881 289.427C291.076 289.018 291.153 288.58 291.112 288.112C291.072 287.654 290.921 287.245 290.658 286.887C290.405 286.517 290.079 286.235 289.681 286.039C289.292 285.842 288.874 285.763 288.425 285.802L284.735 286.125L285.176 291.176ZM309.361 301.889C307.946 302.013 306.592 301.85 305.298 301.401C304.003 300.942 302.839 300.256 301.805 299.343C300.772 298.429 299.929 297.344 299.277 296.086C298.624 294.818 298.232 293.437 298.101 291.942C297.97 290.448 298.117 289.025 298.541 287.673C298.964 286.311 299.605 285.09 300.464 284.011C301.323 282.932 302.351 282.059 303.547 281.392C304.743 280.716 306.048 280.315 307.463 280.192C308.887 280.067 310.247 280.234 311.542 280.693C312.836 281.142 314 281.823 315.033 282.737C316.067 283.65 316.905 284.741 317.548 286.01C318.2 287.268 318.592 288.644 318.722 290.138C318.853 291.632 318.707 293.061 318.284 294.423C317.87 295.774 317.234 296.989 316.375 298.068C315.515 299.147 314.488 300.025 313.292 300.702C312.096 301.368 310.786 301.764 309.361 301.889ZM309 297.765C309.847 297.69 310.629 297.446 311.345 297.032C312.061 296.608 312.676 296.063 313.19 295.395C313.703 294.728 314.084 293.977 314.333 293.142C314.591 292.307 314.679 291.425 314.598 290.499C314.517 289.573 314.277 288.72 313.878 287.942C313.487 287.153 312.982 286.48 312.361 285.922C311.739 285.354 311.039 284.928 310.261 284.645C309.483 284.351 308.67 284.242 307.824 284.316C306.977 284.39 306.196 284.639 305.48 285.063C304.763 285.477 304.148 286.018 303.634 286.685C303.12 287.352 302.734 288.104 302.476 288.94C302.228 289.774 302.144 290.655 302.225 291.581C302.307 292.508 302.542 293.366 302.932 294.155C303.332 294.933 303.842 295.606 304.464 296.174C305.085 296.732 305.785 297.157 306.564 297.451C307.341 297.734 308.153 297.839 309 297.765ZM322.262 300.369L320.432 279.449L328.74 278.722C329.876 278.622 330.927 278.821 331.894 279.319C332.87 279.806 333.669 280.509 334.292 281.428C334.924 282.336 335.29 283.373 335.392 284.539C335.472 285.456 335.388 286.321 335.138 287.136C334.887 287.941 334.498 288.663 333.972 289.301C333.446 289.939 332.813 290.456 332.075 290.852L337.803 299.009L333.051 299.425L327.565 291.623L325.667 291.789L326.386 300.008L322.262 300.369ZM325.306 287.665L328.997 287.342C329.446 287.303 329.844 287.158 330.194 286.906C330.552 286.644 330.825 286.314 331.011 285.916C331.206 285.508 331.283 285.069 331.242 284.601C331.202 284.143 331.051 283.734 330.788 283.376C330.535 283.007 330.209 282.724 329.811 282.528C329.422 282.331 329.004 282.252 328.555 282.291L324.864 282.614L325.306 287.665Z" fill="white"/>
<path fill-rule="evenodd" clip-rule="evenodd" d="M118.937 207.789L121.669 239.021L134.551 237.942L133.077 221.531L162.976 218.915L161.675 204.05L178.554 202.573L174.814 159.835L157.936 161.311L151.081 82.9578L68.2019 90.2088L23.2038 172.943L26.9565 215.836L118.937 207.789ZM123.299 257.65L122.947 253.624L165.685 249.885L166.037 253.911L123.299 257.65ZM86.0229 57.4428L148.371 51.988L147.071 37.1225L94.577 41.7152L86.0229 57.4428ZM115.198 165.05L72.6006 168.621L109.231 98.6339L115.198 165.05ZM251.31 211.449C251.303 211.362 251.295 211.276 251.288 211.189L218.05 214.097C211.69 205.726 206.357 196.207 202.051 185.538C196.729 172.273 193.391 157.897 192.036 142.412C190.681 126.928 191.477 112.243 194.423 98.3581C195.879 91.4243 197.789 84.8598 200.153 78.6646L249.377 74.358C244.964 78.4333 241.372 83.5327 238.6 89.656C235.565 96.579 233.484 104.303 232.357 112.827C231.325 121.239 231.201 129.936 231.987 138.917C233.035 150.892 235.624 162.056 239.754 172.409C243.979 182.65 249.688 190.836 256.882 196.968C264.171 202.988 272.873 205.556 282.99 204.67C293.21 203.776 301.334 199.737 307.363 192.552C313.392 185.367 317.49 176.323 319.657 165.419C321.926 154.506 322.538 143.062 321.49 131.087C320.379 118.389 317.66 106.925 313.332 96.6928C309.107 86.4521 303.416 78.4722 296.258 72.753C295.264 71.9457 294.245 71.2027 293.201 70.5238L293.201 70.5239L342.378 66.2215C345.781 71.9122 348.802 78.0453 351.44 84.6209C356.753 97.7831 360.086 112.107 361.441 127.592C362.796 143.076 362.005 157.813 359.067 171.801C356.679 183.055 353.08 193.356 348.27 202.704L340.788 203.359C340.807 203.565 340.825 203.771 340.844 203.978C341.15 207.483 341.315 210.942 341.337 214.357C335.432 222.945 328.384 230.074 320.192 235.743C310.374 242.427 299.22 246.316 286.729 247.409C274.692 248.462 263.427 246.743 252.934 242.252L257.791 241.827C254.422 232.462 252.272 222.456 251.341 211.808L251.323 211.607C251.319 211.554 251.314 211.502 251.31 211.449ZM233.609 34.3885C228.7 37.7306 224.176 41.6112 220.038 46.0301C220.144 45.9164 220.251 45.803 220.358 45.69L316.99 37.2358C312.306 33.7218 307.327 30.7767 302.052 28.4005C291.214 23.4194 279.549 21.4753 267.058 22.5681C254.567 23.661 243.417 27.6011 233.609 34.3885ZM480.352 176.169L483.084 207.402L495.966 206.322L494.492 189.911L524.391 187.295L523.09 172.43L539.968 170.953L536.229 128.215L519.351 129.692L512.496 51.3381L429.617 58.5891L384.619 141.323L388.371 184.216L480.352 176.169ZM484.714 226.03L484.362 222.004L527.1 218.265L527.452 222.291L484.714 226.03ZM447.438 25.8231L509.786 20.3683L508.486 5.50283L455.992 10.0954L447.438 25.8231ZM476.613 133.431L434.016 137.002L470.646 67.0141L476.613 133.431Z" fill="white"/>
<path opacity="0.2" fill-rule="evenodd" clip-rule="evenodd" d="M107.938 213.789L110.67 245.022L123.552 243.942L122.078 227.531L151.977 224.916L150.676 210.05L167.555 208.573L163.815 165.835L146.937 167.312L140.082 88.9583L57.2029 96.2093L12.2048 178.943L15.9574 221.837L107.938 213.789ZM112.3 263.651L111.948 259.625L154.686 255.885L155.038 259.912L112.3 263.651ZM75.0239 63.4433L137.372 57.9885L136.072 43.123L83.578 47.7156L75.0239 63.4433ZM104.199 171.051L61.6016 174.622L98.2318 104.634L104.199 171.051ZM240.311 217.45C240.303 217.363 240.296 217.276 240.289 217.189L207.051 220.097C200.691 211.727 195.358 202.207 191.052 191.538C185.73 178.273 182.392 163.898 181.037 148.413C179.682 132.928 180.478 118.243 183.424 104.359C184.88 97.4248 186.79 90.8603 189.154 84.665L238.378 80.3585C233.965 84.4338 230.373 89.5332 227.601 95.6565C224.566 102.58 222.485 110.303 221.358 118.828C220.326 127.24 220.202 135.936 220.988 144.918C222.036 156.893 224.625 168.057 228.755 178.41C232.98 188.65 238.689 196.837 245.883 202.969C253.172 208.989 261.874 211.556 271.991 210.671C282.211 209.777 290.335 205.737 296.364 198.552C302.393 191.367 306.491 182.323 308.658 171.419C310.927 160.506 311.539 149.062 310.491 137.087C309.38 124.39 306.661 112.925 302.333 102.693C298.108 92.4526 292.417 84.4727 285.259 78.7535C284.265 77.9462 283.246 77.2032 282.202 76.5243L282.202 76.5244L331.379 72.222C334.782 77.9127 337.803 84.0458 340.441 90.6214C345.754 103.784 349.087 118.107 350.442 133.592C351.797 149.077 351.005 163.813 348.068 177.801C345.68 189.056 342.081 199.357 337.271 208.704L329.789 209.359C329.808 209.565 329.826 209.772 329.844 209.978C330.151 213.483 330.316 216.943 330.338 220.357C324.433 228.946 317.385 236.075 309.193 241.744C299.375 248.428 288.221 252.316 275.73 253.409C263.693 254.462 252.428 252.743 241.935 248.252L246.792 247.827C243.423 238.462 241.273 228.456 240.342 217.809L240.324 217.608C240.32 217.555 240.315 217.502 240.311 217.45ZM222.61 40.389C217.701 43.7311 213.177 47.6116 209.039 52.0306C209.145 51.9169 209.252 51.8035 209.359 51.6905L305.991 43.2363C301.307 39.7223 296.328 36.7772 291.053 34.401C280.215 29.4199 268.55 27.4758 256.059 28.5686C243.568 29.6615 232.418 33.6016 222.61 40.389ZM469.353 182.17L472.085 213.402L484.967 212.322L483.493 195.912L513.391 193.296L512.091 178.43L528.969 176.954L525.23 134.215L508.352 135.692L501.497 57.3386L418.618 64.5896L373.62 147.324L377.372 190.217L469.353 182.17ZM473.715 232.031L473.363 228.005L516.101 224.266L516.453 228.292L473.715 232.031ZM436.439 31.8236L498.787 26.3688L497.487 11.5033L444.993 16.0959L436.439 31.8236ZM465.614 139.431L423.017 143.002L459.647 73.0146L465.614 139.431Z" fill="white"/>
</svg>
